0
SECTION
2
HEADER
9
$INSUNITS
70
4
9
$ACADVER
1
AC1014
9
$HANDSEED
5
FFFF
0
ENDSEC
0
SECTION
2
TABLES
0
TABLE
2
VPORT
5
8
100
AcDbSymbolTable
0
ENDTAB
0
TABLE
2
LTYPE
5
5
100
AcDbSymbolTable
0
LTYPE
5
14
100
AcDbSymbolTableRecord
100
AcDbLinetypeTableRecord
2
BYBLOCK
70
0
0
LTYPE
5
15
100
AcDbSymbolTableRecord
100
AcDbLinetypeTableRecord
2
BYLAYER
70
0
0
ENDTAB
0
TABLE
2
LAYER
5
2
100
AcDbSymbolTable
70
2
0
LAYER
5
50
100
AcDbSymbolTableRecord
100
AcDbLayerTableRecord
2
0
70
0
6
CONTINUOUS
0
ENDTAB
0
TABLE
2
STYLE
5
3
100
AcDbSymbolTable
70
1
0
STYLE
5
11
100
AcDbSymbolTableRecord
100
AcDbTextStyleTableRecord
2
STANDARD
70
0
0
ENDTAB
0
TABLE
2
VIEW
5
6
100
AcDbSymbolTable
70
0
0
ENDTAB
0
TABLE
2
UCS
5
7
100
AcDbSymbolTable
70
0
0
ENDTAB
0
TABLE
2
APPID
5
9
100
AcDbSymbolTable
70
2
0
APPID
5
12
100
AcDbSymbolTableRecord
100
AcDbRegAppTableRecord
2
ACAD
70
0
0
ENDTAB
0
TABLE
2
DIMSTYLE
5
A
100
AcDbSymbolTable
70
1
0
ENDTAB
0
TABLE
2
BLOCK_RECORD
5
1
100
AcDbSymbolTable
70
1
0
BLOCK_RECORD
5
1F
100
AcDbSymbolTableRecord
100
AcDbBlockTableRecord
2
*MODEL_SPACE
0
BLOCK_RECORD
5
1B
100
AcDbSymbolTableRecord
100
AcDbBlockTableRecord
2
*PAPER_SPACE
0
ENDTAB
0
ENDSEC
0
SECTION
2
BLOCKS
0
BLOCK
5
20
100
AcDbEntity
100
AcDbBlockBegin
2
*MODEL_SPACE
0
ENDBLK
5
21
100
AcDbEntity
100
AcDbBlockEnd
0
BLOCK
5
1C
100
AcDbEntity
100
AcDbBlockBegin
2
*PAPER_SPACE
0
ENDBLK
5
1D
100
AcDbEntity
100
AcDbBlockEnd
0
ENDSEC
0
SECTION
2
ENTITIES
0
CIRCLE
5
100
100
AcDbEntity
8
0
100
AcDbCircle
10
152.75
20
-137.49999999999986
30
0
40
3.0000000000000049
210
0
220
0
230
1
0
CIRCLE
5
101
100
AcDbEntity
8
0
100
AcDbCircle
10
-42.250000000000014
20
-137.49999999999986
30
0
40
3.0000000000000071
210
0
220
0
230
1
0
LWPOLYLINE
5
102
100
AcDbEntity
8
0
100
AcDbPolyline
90
8
70
1
43
0.0
10
160.25000000000003
20
-149.99999999999986
10
-49.750000000000021
20
-149.99999999999986
42
-0.41421356237309503
10
-54.750000000000021
20
-144.99999999999986
10
-54.750000000000028
20
145.00000000000014
42
-0.41421356237309398
10
-49.750000000000014
20
150.00000000000014
10
160.25000000000006
20
150.00000000000017
42
-0.41421356237308982
10
165.25000000000003
20
145.00000000000014
10
165.25
20
-144.99999999999986
42
-0.41421356237309193
0
LWPOLYLINE
5
103
100
AcDbEntity
8
0
100
AcDbPolyline
90
4
70
1
43
0.0
10
7.7499999999999769
20
92.500000000000142
10
-21.750000000000021
20
92.500000000000142
10
-21.750000000000021
20
63.000000000000149
10
7.7499999999999769
20
63.000000000000149
0
LWPOLYLINE
5
104
100
AcDbEntity
8
0
100
AcDbPolyline
90
4
70
1
43
0.0
10
49.249999999999979
20
63.000000000000149
10
19.749999999999979
20
63.000000000000149
10
19.749999999999979
20
92.500000000000142
10
49.249999999999979
20
92.500000000000142
0
LWPOLYLINE
5
105
100
AcDbEntity
8
0
100
AcDbPolyline
90
4
70
1
43
0.0
10
90.75
20
63.000000000000149
10
61.249999999999986
20
63.000000000000149
10
61.249999999999986
20
92.500000000000142
10
90.75
20
92.500000000000142
0
LWPOLYLINE
5
106
100
AcDbEntity
8
0
100
AcDbPolyline
90
4
70
1
43
0.0
10
132.24999999999997
20
63.000000000000149
10
102.74999999999999
20
63.000000000000149
10
102.74999999999999
20
92.500000000000142
10
132.24999999999997
20
92.500000000000142
0
CIRCLE
5
107
100
AcDbEntity
8
0
100
AcDbCircle
10
-42.250000000000014
20
137.50000000000014
30
0
40
3.0000000000000071
210
0
220
0
230
1
0
CIRCLE
5
108
100
AcDbEntity
8
0
100
AcDbCircle
10
152.75
20
137.50000000000014
30
0
40
3.0000000000000049
210
0
220
0
230
1
0
LWPOLYLINE
5
109
100
AcDbEntity
8
0
100
AcDbPolyline
90
4
70
1
43
0.0
10
-0.7500000000000151
20
-36.999999999999858
10
28.249999999999986
20
-36.999999999999858
10
28.249999999999986
20
9.0000000000001457
10
-0.7500000000000151
20
9.0000000000001457
0
LWPOLYLINE
5
110
100
AcDbEntity
8
0
100
AcDbPolyline
90
4
70
1
43
0.0
10
40.749999999999986
20
-36.999999999999858
10
69.749999999999986
20
-36.999999999999858
10
69.749999999999986
20
9.0000000000001421
10
40.749999999999986
20
9.0000000000001421
0
LWPOLYLINE
5
111
100
AcDbEntity
8
0
100
AcDbPolyline
90
4
70
1
43
0.0
10
82.250000000000014
20
-36.999999999999858
10
111.25
20
-36.999999999999858
10
111.25
20
9.0000000000001492
10
82.250000000000014
20
9.0000000000001492
0
LWPOLYLINE
5
112
100
AcDbEntity
8
0
100
AcDbPolyline
90
4
70
1
43
0.0
10
-21.500000000000021
20
-92.999999999999858
10
7.499999999999984
20
-92.999999999999858
10
7.4999999999999822
20
-46.999999999999872
10
-21.500000000000021
20
-46.999999999999872
0
LWPOLYLINE
5
113
100
AcDbEntity
8
0
100
AcDbPolyline
90
4
70
1
43
0.0
10
19.999999999999993
20
-92.999999999999886
10
48.999999999999986
20
-92.999999999999886
10
48.999999999999986
20
-46.999999999999872
10
19.999999999999993
20
-46.999999999999872
0
LWPOLYLINE
5
114
100
AcDbEntity
8
0
100
AcDbPolyline
90
4
70
1
43
0.0
10
61.499999999999972
20
-92.999999999999886
10
90.499999999999972
20
-92.999999999999886
10
90.499999999999972
20
-46.999999999999872
10
61.499999999999972
20
-46.999999999999872
0
LWPOLYLINE
5
115
100
AcDbEntity
8
0
100
AcDbPolyline
90
4
70
1
43
0.0
10
103
20
-92.999999999999858
10
132
20
-92.999999999999858
10
132
20
-46.999999999999886
10
103
20
-46.999999999999886
0
ENDSEC
0
SECTION
2
OBJECTS
0
DICTIONARY
5
C
100
AcDbDictionary
3
ACAD_GROUP
350
D
3
ACAD_MLINESTYLE
350
17
0
DICTIONARY
5
D
100
AcDbDictionary
0
DICTIONARY
5
1A
330
C
100
AcDbDictionary
0
DICTIONARY
5
17
100
AcDbDictionary
0
ENDSEC
0
EOF
