0
SECTION
2
HEADER
9
$INSUNITS
70
4
9
$ACADVER
1
AC1014
9
$HANDSEED
5
FFFF
0
ENDSEC
0
SECTION
2
TABLES
0
TABLE
2
VPORT
5
8
100
AcDbSymbolTable
0
ENDTAB
0
TABLE
2
LTYPE
5
5
100
AcDbSymbolTable
0
LTYPE
5
14
100
AcDbSymbolTableRecord
100
AcDbLinetypeTableRecord
2
BYBLOCK
70
0
0
LTYPE
5
15
100
AcDbSymbolTableRecord
100
AcDbLinetypeTableRecord
2
BYLAYER
70
0
0
ENDTAB
0
TABLE
2
LAYER
5
2
100
AcDbSymbolTable
70
2
0
LAYER
5
50
100
AcDbSymbolTableRecord
100
AcDbLayerTableRecord
2
0
70
0
6
CONTINUOUS
0
ENDTAB
0
TABLE
2
STYLE
5
3
100
AcDbSymbolTable
70
1
0
STYLE
5
11
100
AcDbSymbolTableRecord
100
AcDbTextStyleTableRecord
2
STANDARD
70
0
0
ENDTAB
0
TABLE
2
VIEW
5
6
100
AcDbSymbolTable
70
0
0
ENDTAB
0
TABLE
2
UCS
5
7
100
AcDbSymbolTable
70
0
0
ENDTAB
0
TABLE
2
APPID
5
9
100
AcDbSymbolTable
70
2
0
APPID
5
12
100
AcDbSymbolTableRecord
100
AcDbRegAppTableRecord
2
ACAD
70
0
0
ENDTAB
0
TABLE
2
DIMSTYLE
5
A
100
AcDbSymbolTable
70
1
0
ENDTAB
0
TABLE
2
BLOCK_RECORD
5
1
100
AcDbSymbolTable
70
1
0
BLOCK_RECORD
5
1F
100
AcDbSymbolTableRecord
100
AcDbBlockTableRecord
2
*MODEL_SPACE
0
BLOCK_RECORD
5
1B
100
AcDbSymbolTableRecord
100
AcDbBlockTableRecord
2
*PAPER_SPACE
0
ENDTAB
0
ENDSEC
0
SECTION
2
BLOCKS
0
BLOCK
5
20
100
AcDbEntity
100
AcDbBlockBegin
2
*MODEL_SPACE
0
ENDBLK
5
21
100
AcDbEntity
100
AcDbBlockEnd
0
BLOCK
5
1C
100
AcDbEntity
100
AcDbBlockBegin
2
*PAPER_SPACE
0
ENDBLK
5
1D
100
AcDbEntity
100
AcDbBlockEnd
0
ENDSEC
0
SECTION
2
ENTITIES
0
LWPOLYLINE
5
100
100
AcDbEntity
8
0
100
AcDbPolyline
90
4
70
1
43
0.0
10
70.249999999999986
20
9.5000000000001439
10
40.249999999999993
20
9.5000000000001439
10
40.249999999999993
20
-37.499999999999858
10
70.249999999999986
20
-37.499999999999858
0
LWPOLYLINE
5
101
100
AcDbEntity
8
0
100
AcDbPolyline
90
4
70
1
43
0.0
10
49.499999999999993
20
-93.499999999999886
10
49.499999999999993
20
-46.499999999999872
10
19.499999999999986
20
-46.499999999999872
10
19.499999999999986
20
-93.499999999999872
0
LWPOLYLINE
5
102
100
AcDbEntity
8
0
100
AcDbPolyline
90
4
70
1
43
0.0
10
90.999999999999972
20
-46.499999999999879
10
90.999999999999972
20
-93.499999999999872
10
60.999999999999979
20
-93.499999999999872
10
60.999999999999979
20
-46.499999999999879
0
LWPOLYLINE
5
103
100
AcDbEntity
8
0
100
AcDbPolyline
90
4
70
1
43
0.0
10
28.749999999999982
20
-37.499999999999858
10
28.749999999999982
20
9.5000000000001439
10
-1.2500000000000178
20
9.5000000000001439
10
-1.2500000000000178
20
-37.499999999999858
0
LWPOLYLINE
5
104
100
AcDbEntity
8
0
100
AcDbPolyline
90
8
70
1
43
0.0
10
165.25
20
-144.74999999999994
10
165.25
20
34.750000000000085
42
0.41421356237309703
10
160
20
40.000000000000128
10
-49.500000000000028
20
40.000000000000128
42
0.41421356237309898
10
-54.750000000000014
20
34.750000000000192
10
-54.750000000000014
20
-144.74999999999983
42
0.41421356237309803
10
-49.500000000000028
20
-149.99999999999989
10
160
20
-149.99999999999986
42
0.41421356237309898
0
LWPOLYLINE
5
105
100
AcDbEntity
8
0
100
AcDbPolyline
90
4
70
1
43
0.0
10
111.74999999999999
20
9.5000000000001439
10
111.74999999999999
20
-37.499999999999858
10
81.749999999999986
20
-37.499999999999858
10
81.749999999999986
20
9.5000000000001439
0
LWPOLYLINE
5
106
100
AcDbEntity
8
0
100
AcDbPolyline
90
4
70
1
43
0.0
10
102.5
20
-93.499999999999872
10
102.5
20
-46.499999999999879
10
132.5
20
-46.499999999999879
10
132.5
20
-93.499999999999872
0
LWPOLYLINE
5
107
100
AcDbEntity
8
0
100
AcDbPolyline
90
4
70
1
43
0.0
10
-22.000000000000021
20
-93.499999999999872
10
-22.000000000000021
20
-46.499999999999858
10
7.9999999999999805
20
-46.499999999999858
10
7.9999999999999805
20
-93.499999999999872
0
CIRCLE
5
108
100
AcDbEntity
8
0
100
AcDbCircle
10
-42.250000000000014
20
27.500000000000124
30
0
40
3.0000000000000027
210
0
220
0
230
1
0
CIRCLE
5
109
100
AcDbEntity
8
0
100
AcDbCircle
10
55.249999999999986
20
27.500000000000124
30
0
40
3.0000000000000031
210
0
220
0
230
1
0
CIRCLE
5
110
100
AcDbEntity
8
0
100
AcDbCircle
10
-42.250000000000014
20
-137.49999999999989
30
0
40
3.0000000000000071
210
0
220
0
230
1
0
CIRCLE
5
111
100
AcDbEntity
8
0
100
AcDbCircle
10
55.249999999999986
20
-137.49999999999989
30
0
40
3.0000000000000004
210
0
220
0
230
1
0
CIRCLE
5
112
100
AcDbEntity
8
0
100
AcDbCircle
10
152.75
20
27.500000000000124
30
0
40
3.0000000000000071
210
0
220
0
230
1
0
CIRCLE
5
113
100
AcDbEntity
8
0
100
AcDbCircle
10
152.75
20
-137.49999999999989
30
0
40
3.0000000000000049
210
0
220
0
230
1
0
LWPOLYLINE
5
114
100
AcDbEntity
8
0
100
AcDbPolyline
90
8
70
1
43
0.0
10
23.749999999999982
20
-31.624999999999858
10
23.749999999999982
20
3.625000000000143
42
0.41421356237309664
10
23.249999999999986
20
4.125000000000143
10
4.2499999999999822
20
4.125000000000143
42
0.41421356237309404
10
3.7499999999999822
20
3.6250000000001448
10
3.7499999999999822
20
-31.624999999999858
42
0.41421356237309698
10
4.2499999999999822
20
-32.124999999999858
10
23.249999999999986
20
-32.124999999999858
42
0.41421356237309503
0
LINE
5
115
100
AcDbEntity
8
0
100
AcDbLine
10
45.749999999999986
20
-32.124999999999858
30
0
11
64.749999999999986
21
-32.124999999999858
31
0
0
LINE
5
116
100
AcDbEntity
8
0
100
AcDbLine
10
65.249999999999986
20
-31.624999999999858
30
0
11
65.249999999999986
21
4.125000000000143
31
0
0
LINE
5
117
100
AcDbEntity
8
0
100
AcDbLine
10
64.749999999999986
20
4.125000000000143
30
0
11
45.749999999999986
21
4.1250000000001421
31
0
0
LWPOLYLINE
5
118
100
AcDbEntity
8
0
100
AcDbPolyline
90
8
70
1
43
0.0
10
106.24999999999999
20
4.125000000000143
10
87.25
20
4.125000000000143
42
0.41421356237306839
10
86.749999999999986
20
3.6250000000001448
10
86.749999999999986
20
-31.624999999999858
42
0.41421356237306639
10
87.25
20
-32.124999999999858
10
106.24999999999999
20
-32.124999999999858
42
0.41421356237306639
10
106.74999999999999
20
-31.624999999999858
10
106.74999999999999
20
3.625000000000143
42
0.41421356237306933
0
LWPOLYLINE
5
119
100
AcDbEntity
8
0
100
AcDbPolyline
90
8
70
1
43
0.0
10
-16.500000000000018
20
-88.124999999999858
10
2.4999999999999805
20
-88.124999999999858
42
0.41421356237309037
10
2.9999999999999805
20
-87.624999999999858
10
2.9999999999999796
20
-52.374999999999872
42
0.4142135623730957
10
2.49999999999998
20
-51.874999999999872
10
-16.500000000000018
20
-51.874999999999872
42
0.41421356237309631
10
-17.000000000000021
20
-52.374999999999872
10
-17.000000000000021
20
-87.624999999999858
42
0.41421356237308854
0
LWPOLYLINE
5
120
100
AcDbEntity
8
0
100
AcDbPolyline
90
8
70
1
43
0.0
10
24.999999999999982
20
-88.124999999999872
10
43.999999999999993
20
-88.124999999999872
42
0.414213562373069
10
44.499999999999993
20
-87.624999999999872
10
44.499999999999993
20
-52.374999999999872
42
0.41421356237309503
10
43.999999999999993
20
-51.874999999999872
10
24.999999999999982
20
-51.874999999999872
42
0.41421356237309503
10
24.499999999999986
20
-52.374999999999872
10
24.499999999999986
20
-87.624999999999872
42
0.414213562373069
0
LWPOLYLINE
5
121
100
AcDbEntity
8
0
100
AcDbPolyline
90
8
70
1
43
0.0
10
66.499999999999972
20
-88.124999999999872
10
85.499999999999972
20
-88.124999999999872
42
0.41421356237307422
10
85.999999999999972
20
-87.624999999999872
10
85.999999999999972
20
-52.374999999999872
42
0.41421356237308982
10
85.499999999999972
20
-51.874999999999872
10
66.499999999999972
20
-51.874999999999872
42
0.41421356237309503
10
65.999999999999972
20
-52.374999999999872
10
65.999999999999972
20
-87.624999999999872
42
0.414213562373069
0
LWPOLYLINE
5
122
100
AcDbEntity
8
0
100
AcDbPolyline
90
8
70
1
43
0.0
10
108
20
-88.124999999999872
10
127
20
-88.124999999999872
42
0.41421356237307422
10
127.5
20
-87.624999999999872
10
127.5
20
-52.374999999999872
42
0.41421356237308982
10
127
20
-51.874999999999872
10
108
20
-51.874999999999872
42
0.41421356237308982
10
107.5
20
-52.374999999999872
10
107.5
20
-87.624999999999872
42
0.41421356237307422
0
ARC
5
123
100
AcDbEntity
8
0
100
AcDbCircle
10
45.749999999999986
20
-31.624999999999858
30
0
40
0.49999999999999822
210
0
220
0
230
1
100
AcDbArc
50
180
51
270
0
ARC
5
124
100
AcDbEntity
8
0
100
AcDbCircle
10
45.749999999999986
20
3.6250000000001439
30
0
40
0.49999999999999822
210
0
220
-0
230
1
100
AcDbArc
50
90
51
180
0
ARC
5
125
100
AcDbEntity
8
0
100
AcDbCircle
10
64.749999999999986
20
3.6250000000001439
30
0
40
0.49999999999999822
210
0
220
-0
230
1
100
AcDbArc
50
0
51
90
0
ARC
5
126
100
AcDbEntity
8
0
100
AcDbCircle
10
64.749999999999986
20
-31.624999999999858
30
0
40
0.49999999999999822
210
-0
220
0
230
1
100
AcDbArc
50
-90
51
0
0
LINE
5
127
100
AcDbEntity
8
0
100
AcDbLine
10
45.249999999999986
20
3.625000000000143
30
0
11
45.249999999999986
21
-31.000000461935997
31
0
0
ENDSEC
0
SECTION
2
OBJECTS
0
DICTIONARY
5
C
100
AcDbDictionary
3
ACAD_GROUP
350
D
3
ACAD_MLINESTYLE
350
17
0
DICTIONARY
5
D
100
AcDbDictionary
0
DICTIONARY
5
1A
330
C
100
AcDbDictionary
0
DICTIONARY
5
17
100
AcDbDictionary
0
ENDSEC
0
EOF
